<?xml version="1.0" encoding="UTF-8" standalone="no"?><!DOCTYPE svg PUBLIC "-//W3C//DTD SVG 1.1//EN" "http://www.w3.org/Graphics/SVG/1.1/DTD/svg11.dtd"><svg width="100%" height="100%" viewBox="0 0 11180 11180" version="1.1" xmlns="http://www.w3.org/2000/svg" xmlns:xlink="http://www.w3.org/1999/xlink" xml:space="preserve" xmlns:serif="http://www.serif.com/" style="fill-rule:evenodd;clip-rule:evenodd;stroke-linejoin:round;stroke-miterlimit:2;"><g id="Background"><path d="M5912.805,974.986c12.089,2.187 24.179,4.375 36.268,6.562c9.171,0.247 8.271,1.238 17.957,1.499c4.345,0.117 4.025,0.046 54.333,0.619c12.086,2.431 24.172,4.862 36.257,7.293c15.061,0.384 30.122,0.768 45.183,1.151c18.098,4.376 17.104,5.151 36.344,7.037c15.016,0.743 30.032,1.487 45.047,2.23c18.025,5.674 17.515,5.294 36.42,6.675c36.404,5.228 295.966,42.502 451.961,84.103c9.119,2.542 18.238,5.085 27.357,7.627c-0,0 8.897,1.059 8.897,1.059c9.132,2.527 18.263,5.054 27.395,7.582c43.992,11.919 330.671,89.589 542.29,174.66c0.857,0.344 0,-0 9.596,6.408c14.251,6.531 32.24,10.869 35.115,11.562c14.834,1.465 12.699,6.787 27.286,9.576c8.469,6.143 7.591,6.603 17.988,8.412c9.435,0.916 75.484,32.297 81.932,35.361c84.149,39.982 84.323,39.376 90.746,44.274c25.581,13.216 23.877,17.651 52.763,20.236c34.327,22.954 121.703,60.1 146.584,78.629c4.189,2.446 4.216,0.75 54.025,27.527c128.767,71.731 129.11,70.246 144.269,82.377c2.263,1.288 17.476,9.948 28.033,16.53l7.693,2.448c8.972,7.005 8.498,6.147 37.642,24.523c105.721,67.659 148.38,94.002 161.376,102.028c9.616,8.197 8.832,7.618 19.74,15.41c30.244,22.07 27.259,25.973 61.269,40.506c2.857,2.8 5.715,5.599 8.572,8.399c1.635,1.179 10.159,7.329 20.292,14.94c5.469,3.788 10.937,7.575 16.406,11.363c13.182,10.22 11.859,11.115 26.672,18.086c41.563,30.978 40.065,32.056 81.79,63.393c10.414,8.057 9.847,7.621 20.149,15.417c9.953,6.479 17.06,11.105 116.078,92.528c3.131,2.827 6.262,5.654 9.393,8.482c9.834,8.254 9.202,7.729 19.558,16.333c2.141,1.487 16.219,11.263 25.599,20.151c2.989,2.976 5.978,5.951 8.967,8.927c1.517,1.359 9.467,8.479 18.927,17.027c22.533,20.299 21.587,20.048 43.497,38.328c3.171,2.801 6.342,5.602 9.512,8.403c3.201,2.804 6.403,5.607 9.604,8.411c3.17,2.839 6.34,5.678 9.509,8.517c3.132,2.887 6.264,5.774 9.397,8.66c3.105,2.921 6.209,5.843 9.314,8.764c9.778,9.259 9.131,8.647 18.58,17.59c17.532,15.223 16.395,15.29 34.139,30.238c2.761,3.039 5.522,6.077 8.283,9.116c2.94,2.829 21.595,20.781 36.637,35.469c3.046,2.985 6.091,5.971 9.137,8.956c3.033,2.994 6.067,5.988 9.1,8.981c9.458,9.269 9.052,8.874 18.512,17.463c9.276,9.024 16.847,16.834 18.289,18.321c8.575,9.451 8.179,9.043 17.441,18.529c2.997,3.033 5.995,6.067 8.992,9.1c2.989,3.04 5.978,6.08 8.967,9.12c22.417,22.921 20.938,23.513 44.537,44.929c19.773,23.5 16.695,25.726 36.364,37.077c4.687,9.271 4.596,8.481 11.44,15.699c2.917,3.108 5.834,6.216 8.751,9.324c2.877,3.139 5.753,6.278 8.63,9.417c2.829,3.178 5.658,6.357 8.488,9.535c2.825,3.158 5.649,6.317 8.474,9.475c2.993,2.955 5.987,5.91 8.98,8.866c7.407,7.837 5.907,8.89 89.937,100.4c3.755,9.312 3.387,8.923 10.111,16.976c2.832,3.123 5.665,6.247 8.497,9.37c64.735,79.079 63.504,79.324 98.615,118.714c3.432,9.973 2.921,9.51 9.181,17.595c2.888,2.858 5.775,5.716 8.663,8.573c11.439,22.809 58.36,75.887 63.873,82.123c5.092,15.791 5.919,14.643 17.386,26.977c3.073,3.117 6.147,6.234 9.22,9.351c3.217,9.923 2.7,9.501 9.463,17.324c1.557,1.779 58.892,83.109 63.996,90.349c19.078,27.062 15.202,28.726 35.468,54.815c10.73,12.792 6.439,14.896 17.142,26.791c2.937,6.89 3.146,6.648 48.642,79.989c12.482,19.798 10.448,19.981 24.609,37.49c1,3.186 40.209,73.756 56.631,98.253c47.984,71.58 39.673,76.251 44.622,81.828c3.475,3.916 7.608,1.261 7.01,9.992c-0.5,7.291 96.671,179.691 99.569,199.05c1.431,9.558 89.374,181.296 98.063,222.8c2.619,12.511 9.88,8.684 11.371,20.871c0.674,2.881 4.978,21.268 11.475,35.159c8.037,13.25 50.131,124.805 54.26,135.747c8.637,22.889 7.876,22.471 16.834,45.6c12.046,31.103 6.513,32.075 19.614,62.88c5.353,10.439 7.571,25.237 7.911,27.501c41.475,129.812 43.441,128.331 78.062,260.86c0.401,1.534 0.426,1.405 5.755,18.962l3.176,17.324c5.956,23.097 6.065,22.248 8.928,36.256l4.182,10.239c1.512,8.674 3.023,17.348 4.535,26.022c46.787,216.93 50.838,215.369 81.946,434.734c0.316,2.228 0.393,2.047 5.3,27.628c0,0 1.938,26.948 1.938,26.948c0.172,0.822 0.048,0.035 6.603,54.577c1.255,11.921 2.51,23.842 3.765,35.763c1.568,18.26 3.135,36.52 4.703,54.78c0,0 3.791,35.855 3.791,35.855c1.406,6.403 4.058,18.486 5.609,81.745c-0,0 3.046,35.999 3.046,35.999c15.486,135.883 5.388,416.372 4.086,452.554c-0.339,9.404 -1.085,30.133 -0.836,117.62c-2.163,12.093 -4.327,24.186 -6.49,36.279c-0.315,13.783 -1.391,13.12 -1.709,27.022c-0.099,4.343 -0.032,4.023 -0.434,54.305c-2.421,12.089 -4.842,24.179 -7.263,36.268c-0.458,18.069 -0.915,36.138 -1.373,54.207c-2.074,9.133 -4.148,18.265 -6.223,27.398l-2.957,54.023c-2.159,12.141 -4.317,24.282 -6.476,36.423c-5.765,40.055 -47.935,333.054 -92.985,497.233c-2.524,9.129 -5.049,18.259 -7.573,27.388c-6.836,25.668 -65.34,245.323 -95.402,318.03c-1.828,8.421 -3.656,16.842 -5.484,25.263c-5.66,34.174 -86.167,226.908 -94.301,246.383c-5.172,11.991 -4.521,11.361 -6.655,24.374c-0.108,1.9 -1.448,1.097 -11.512,20.823c-5.008,11.973 -4.418,11.369 -6.078,24.243c-53.61,114.911 -56.456,113.588 -64.731,145.092c-12.879,16.289 -13.19,15.502 -17.533,35.771c-7.874,12.406 -60.581,127.085 -88.599,172.734c-2.626,4.279 -1.121,3.82 -2.325,7.921c-19.161,26.938 -15.457,28.363 -31.717,56.548c-16.264,26.255 -28.823,56.218 -30.946,61.283c-0.221,0.528 -46.664,66.078 -54.187,90.51c-14.121,18.112 -11.96,18.584 -24.324,37.713c-1.935,2.851 -35.853,62.421 -52.023,82.894c-2.617,3.314 -0.957,3.474 -3.595,6.865c-0.615,0.79 0,0 -8.091,9.546c-1.341,2.239 -10.292,17.185 -17.332,27.633c-27.637,38.597 -22.155,44.625 -95.627,138.505c-5.807,8.469 -5.216,8.159 -11.32,16.51c-5.976,8.176 -4.603,8.467 -10.86,16.783c-5.896,8.522 -24.15,33.909 -26.264,36.848c-31.224,42.269 -28.907,43.614 -55.619,71.411c-3.768,5.42 -7.536,10.841 -11.304,16.261c-8.034,10.735 -7.505,10.029 -15.237,20.375c-37.993,58.292 -100.052,124.778 -109.539,134.943c-8.662,10.215 -8.087,9.537 -16.49,19.445c-1.527,2.106 -11.558,15.941 -20.573,25.187c-9.266,9.128 -8.632,8.454 -17.366,18.348c-24.106,26.504 -21.229,28.169 -46.138,53.946c-3.05,2.901 -6.101,5.803 -9.151,8.704c-2.889,3.094 -5.778,6.187 -8.667,9.281c-2.915,3.105 -5.831,6.21 -8.746,9.315c-1.407,1.483 -8.802,9.278 -17.59,18.54c-116.641,127.672 -223.907,225.67 -244.313,244.313c-9.262,8.787 -17.057,16.183 -18.54,17.59c-3.106,2.915 -6.212,5.829 -9.318,8.744c-3.097,2.884 -6.193,5.768 -9.29,8.652c-2.903,3.049 -5.806,6.098 -8.708,9.147c-4.079,3.951 -5.414,2.025 -53.93,46.161c-9.864,8.72 -9.184,8.077 -18.342,17.371c-40.511,39.449 -50.988,36.746 -182.222,152.619c-9.643,3.382 -9.225,2.847 -17.735,9.221c-5.415,3.772 -10.83,7.544 -16.246,11.316c-34.777,33.338 -37.171,29.14 -74.341,61.139c-15.886,5.766 -14.7,6.784 -26.763,17.817c-3.164,3.011 -6.328,6.022 -9.492,9.033c-15.543,5.108 -14.712,6.023 -27.145,17.154c-26.593,11.008 -91.336,69.85 -107.5,74.173c-9.253,2.474 -34.685,23.499 -37.492,25.82c-10.101,3.283 -9.705,2.842 -18.203,8.467c-66.638,46.938 -71.334,39.859 -108.225,73.233c-19.83,4.488 -19.14,5.384 -35.558,18.216c-6.853,2.123 -139.818,79.45 -154.281,90.392c-29.513,8.697 -29.129,8.714 -54.056,26.458c-13.998,4.104 -12.14,7.92 -162.423,82.876c-5.7,2.843 -4.036,4.228 -9.628,7.777c-2.425,1.539 -6.188,-1.285 -8.612,0.254c-20.269,4.343 -19.482,4.654 -35.771,17.533c-30.455,7.999 -29.177,10.703 -145.094,64.729c-12.894,1.68 -12.291,1.094 -24.236,6.092c-11.23,4.64 -9.517,6.642 -20.827,11.501c-13.032,2.151 -12.398,1.503 -24.369,6.668c-19.48,8.121 -212.824,88.719 -246.387,94.289c-8.419,1.836 -16.837,3.673 -25.256,5.509c-101.038,41.759 -292.25,89.002 -318.037,95.374c-8.695,1.438 -17.39,2.876 -26.084,4.314c-181.444,49.633 -432.934,85.42 -470.919,90.825c-2.229,0.317 -2.046,0.401 -27.618,5.418l-26.939,1.879c-2.371,0.51 -2.316,0.409 -63.503,7.58l-26.844,2.789c-3.324,0.789 -3.249,0.573 -54.762,4.792l-35.859,3.766c-6.473,1.031 -27.547,4.387 -81.736,5.644c-0,-0 -36.001,3.079 -36.001,3.079c-135.298,15.798 -416.365,5.65 -452.547,4.344c-9.403,-0.34 -31.272,-1.129 -117.614,-0.865c-12.098,-2.115 -24.196,-4.23 -36.294,-6.345c-13.782,-0.352 -13.116,-1.44 -27.017,-1.795c-4.343,-0.111 -4.022,-0.034 -54.302,-0.455c-12.094,-2.387 -24.187,-4.774 -36.281,-7.162c-18.067,-0.478 -36.134,-0.956 -54.2,-1.434c-18.095,-4.376 -17.099,-5.159 -36.344,-7.024c-15.028,-0.701 -30.055,-1.403 -45.083,-2.104c-12.147,-2.151 -24.294,-4.302 -36.441,-6.453c-37.108,-5.34 -314.576,-45.27 -461.006,-84.196c-9.127,-2.527 -18.253,-5.054 -27.38,-7.581l-8.89,-1.088c-17.609,-6.76 -17.041,-6.196 -36.03,-9.114c-23.106,-7.417 -24.298,-2.655 -290.478,-87.393c-29.672,-9.446 -48.683,-12.604 -52.996,-13.32c-6.14,-2.502 -12.28,-5.004 -18.419,-7.505c-2.654,-0.534 -186.736,-67.065 -208.563,-80.3c-13.787,-6.451 -32.277,-10.797 -35.157,-11.474c-14.488,-1.816 -12.331,-6.674 -27.17,-9.761c-5.959,-2.697 -11.918,-5.394 -17.877,-8.09c-15.411,-6.822 -172.984,-76.576 -190.857,-89.189c-9.304,-4.624 -9.331,-3.196 -18.638,-7.849c-21.418,-11.681 -22.979,-7.07 -44.387,-19.849c-59.672,-35.619 -105.507,-48.318 -273.709,-149.679c-48.338,-29.129 -54.927,-31.206 -60.157,-32.855c-22.893,-18.495 -23.706,-15.984 -48.148,-31.203c-50.816,-34.177 -63.363,-39.513 -69.332,-42.052c-2.978,-2.669 -5.957,-5.337 -8.935,-8.006c-10.812,-7.318 -10.174,-6.888 -20.828,-13.978c-40.096,-28.898 -130.711,-87.209 -142.201,-94.603c-3.137,-2.709 -6.274,-5.417 -9.411,-8.126c-3.338,-2.564 -6.676,-5.128 -10.015,-7.691c-7.634,-5.299 -33.91,-24.132 -36.851,-26.24c-38.798,-28.304 -39.358,-26.776 -75.714,-58.985l-12.364,-7.562c-10.468,-8.102 -9.922,-7.68 -20.125,-15.392c-27.453,-17.541 -75.357,-64.105 -116.173,-92.41c-3.124,-2.834 -6.248,-5.667 -9.371,-8.501c-3.251,-2.717 -6.503,-5.434 -9.754,-8.151c-9.815,-8.154 -18.026,-15.044 -19.59,-16.356c-7.653,-6.743 -8.395,-4.797 -15.861,-11.93c-2.975,-2.984 -5.95,-5.968 -8.925,-8.953c-1.52,-1.355 -9.485,-8.457 -18.966,-16.97c-22.102,-19.811 -22.922,-17.472 -44.268,-37.696c-2.956,-2.996 -5.912,-5.993 -8.868,-8.989c-3.16,-2.822 -6.32,-5.644 -9.48,-8.466c-3.178,-2.829 -6.356,-5.658 -9.535,-8.487c-3.141,-2.875 -6.282,-5.749 -9.424,-8.624c-3.111,-2.913 -6.223,-5.827 -9.334,-8.74c-9.288,-8.796 -17.09,-16.184 -18.576,-17.591c-17.561,-15.202 -16.356,-15.227 -34.173,-30.232c-21.64,-23.81 -22.219,-22.341 -44.944,-44.531c-3.046,-2.985 -6.091,-5.971 -9.137,-8.956c-3.033,-2.994 -6.067,-5.988 -9.1,-8.981c-9.374,-9.184 -8.977,-8.805 -18.525,-17.459c-9.293,-9.004 -16.873,-16.796 -18.317,-18.28c-8.751,-9.619 -8.337,-9.18 -17.451,-18.521c-2.996,-3.036 -5.992,-6.072 -8.987,-9.108c-2.991,-3.038 -5.982,-6.076 -8.973,-9.114c-2.976,-3.052 -5.953,-6.104 -8.929,-9.156c-7.309,-7.539 -24.421,-25.285 -26.543,-27.486c-3.037,-2.765 -6.074,-5.529 -9.111,-8.294c-14.805,-17.608 -15.439,-24.879 -36.32,-37.066c-4.641,-9.064 -4.511,-8.27 -11.503,-15.643c-2.919,-3.107 -5.838,-6.214 -8.757,-9.321c-2.887,-3.132 -5.773,-6.264 -8.66,-9.396c-2.837,-3.172 -5.675,-6.344 -8.512,-9.516c-2.806,-3.2 -5.611,-6.4 -8.417,-9.601c-2.801,-3.17 -5.603,-6.34 -8.404,-9.511c-2.985,-2.931 -5.97,-5.862 -8.955,-8.793c-15.741,-16.727 -13.986,-25.217 -35.806,-37.263c-4.166,-9.433 -3.933,-8.967 -10.571,-16.389c-2.974,-2.99 -5.948,-5.981 -8.922,-8.971c-11.867,-12.508 -32.017,-34.692 -34.777,-37.731c-3.869,-9.785 -3.507,-9.393 -10.203,-16.809c-82.177,-99.715 -81.735,-99.753 -98.495,-118.763c-3.653,-9.909 -3.292,-9.447 -9.486,-17.431c-2.842,-3.042 -5.684,-6.084 -8.527,-9.126c-2.967,-3.158 -50.487,-66.842 -54.843,-72.68c-1.608,-2.015 0.298,-2.917 -18.086,-26.677c-2.82,-3.074 -5.641,-6.148 -8.461,-9.222c-2.997,-3.174 -5.994,-6.348 -8.992,-9.522c-3.406,-10.239 -2.921,-9.729 -8.853,-17.95c-2.799,-2.862 -5.598,-5.724 -8.397,-8.586c-2.315,-5.4 -5.953,-13.886 -40.503,-61.26c-5.614,-7.888 -5.193,-7.734 -14.249,-11.516c-4.023,-15.364 -3.957,-15.11 -103.207,-169.589c-6.974,-11.045 -6.617,-10.501 -14.439,-20.164c-2.669,-8.453 -16.585,-25.457 -18.257,-27.5c-3.386,-13.697 -2.526,-13.566 -10.797,-25.715c-24.455,-30.561 -55.597,-106.72 -88.896,-146.325c-3.465,-28.605 -6.619,-27.315 -20.993,-51.976c-18.571,-24.974 -55.716,-112.196 -78.623,-146.582c-0.866,-4.438 -4.261,-21.84 -20.237,-52.77c-9.989,-13.1 -69.646,-149.864 -71.764,-154.088c-10.827,-21.59 -6.389,-22.645 -17.948,-45.203c-0.739,-1.443 -7.523,-14.682 -7.926,-18.656c-0.697,-2.874 -5.07,-20.914 -11.578,-35.107c-22.914,-34.46 -138.431,-381.786 -181.052,-551.897c-1.463,-8.689 -2.927,-17.378 -4.39,-26.066l-4.262,-10.223c-1.487,-8.681 -2.974,-17.362 -4.461,-26.042c-44.183,-167.025 -76.826,-391.356 -81.819,-425.672c-0.324,-2.228 -0.402,-2.045 -5.431,-27.61c-0.66,-8.966 -1.32,-17.931 -1.981,-26.897c-1.079,-4.909 -0.854,-4.673 -6.954,-54.567c-1.25,-11.922 -2.5,-23.844 -3.751,-35.766c-1.467,-15.255 -2.935,-30.51 -4.402,-45.765l-3.797,-35.848c-5.91,-37.028 -4.63,-36.189 -5.614,-72.699c-0,-0 -3.233,-35.977 -3.233,-35.977c-18.095,-159.014 -4.705,-532.833 -3.047,-579.134c0.185,-5.172 -0.3,-58.366 -0.346,-63.442c2.131,-12.095 4.262,-24.19 6.392,-36.284c0.295,-9.685 1.272,-8.782 1.552,-17.952c0.133,-4.344 0.052,-4.024 0.704,-54.326c2.391,-12.091 4.782,-24.181 7.172,-36.272l1.234,-45.171c4.253,-18.124 4.965,-17.14 6.902,-36.372l2.287,-45.031c5.528,-17.962 5.178,-17.462 6.654,-36.438c5.244,-36.39 45.824,-317.996 84.482,-451.737c6.383,-17.983 5.686,-17.342 8.594,-36.299c6.239,-17.669 5.73,-17.046 8.693,-36.256c36.772,-111.814 25.712,-114.542 64.643,-226.086c14.274,-40.897 10.444,-41.615 26.438,-81.32c2.884,-9.055 5.768,-18.111 8.652,-27.166c5.769,-33.517 86.504,-226.786 94.64,-246.26c9.163,-21.283 5.522,-21.737 14.42,-43.009c1.558,-9.784 24.508,-58.605 26.857,-63.603c47.56,-101.176 46.925,-101.276 52.472,-109.227c17.919,-33.925 20.133,-48.137 20.83,-52.61c6.13,-12.523 67.234,-137.359 81.133,-154.249c22.785,-43.143 22.508,-42.898 24.577,-46.567c18.016,-29.729 17.328,-29.531 30.447,-61.568c7.352,-17.953 47.264,-76.382 51.67,-82.831c2.368,-3.467 1.184,-3.421 2.645,-7.644c13.822,-17.868 11.977,-18.482 24.116,-37.807c48.082,-70.868 42.002,-73.796 91.224,-144.276c3.91,-5.599 2.951,-5.99 46.314,-71.714c3.426,-5.193 30.628,-46.423 45.481,-63.086c2.526,-3.348 5.052,-6.696 7.579,-10.044c2.058,-2.976 13.093,-18.933 26.446,-36.693c25.332,-38.58 27.702,-36.082 65.355,-89.12c13.113,-14.052 12.914,-13.274 24.18,-29.256c6.445,-8.731 56.287,-76.249 84.466,-106.149c2.713,-3.246 5.426,-6.493 8.138,-9.739c8.096,-9.849 14.915,-18.12 16.213,-19.694c1.497,-2.132 11.343,-16.154 20.058,-25.645c2.944,-3.027 5.887,-6.055 8.831,-9.082c1.347,-1.532 8.41,-9.562 16.846,-19.145c36.169,-40.293 35.163,-40.071 38.417,-43.372c2.809,-3.168 5.618,-6.335 8.427,-9.503c2.801,-3.206 5.602,-6.412 8.404,-9.618c2.811,-3.199 5.623,-6.399 8.434,-9.598c8.496,-9.549 15.742,-17.483 17.122,-18.993c28.793,-30.697 27.343,-31.284 56.581,-61.433c3.027,-2.948 6.055,-5.895 9.082,-8.843c2.934,-3.063 5.868,-6.126 8.802,-9.19c2.957,-3.067 5.914,-6.134 8.871,-9.201c2.975,-3.057 5.949,-6.113 8.924,-9.17c2.98,-3.052 5.961,-6.105 8.941,-9.157c2.989,-3.041 5.978,-6.082 8.966,-9.123c9.603,-9.675 8.999,-9.066 17.985,-18.18c17.616,-18.717 33.225,-33.41 36.208,-36.218c9.119,-8.983 8.515,-8.383 18.186,-17.981c3.041,-2.989 6.082,-5.978 9.123,-8.966c3.052,-2.98 6.105,-5.961 9.157,-8.941c3.057,-2.975 6.113,-5.949 9.17,-8.924c3.067,-2.957 6.134,-5.914 9.201,-8.871c3.063,-2.934 6.126,-5.868 9.19,-8.802c2.948,-3.027 5.895,-6.055 8.843,-9.082c67.795,-65.746 67.57,-65.792 73.5,-71.458c9.178,-4.009 8.639,-3.749 16.525,-10.679c3.206,-2.801 6.412,-5.602 9.618,-8.404c3.168,-2.809 6.335,-5.618 9.503,-8.427c4.378,-4.316 3.971,-3.817 55.185,-53.469c9.735,-3.887 9.269,-3.622 16.439,-10.597c14.308,-13.2 35.032,-31.622 38.099,-34.348c9.665,-4.02 9.233,-3.633 16.96,-10.08c8.251,-7.777 41.822,-39.416 109.978,-89.4c15.123,-7.534 13.632,-8.237 25.423,-19.255c43.509,-38.704 49.173,-30.529 91.483,-71.454c15.859,-5.217 14.694,-6.028 27.086,-17.43c16.756,-16.115 285.562,-188.278 298.576,-199.473c19.353,-6.006 19.046,-5.319 35.612,-18.128c6.316,-2.192 143.451,-81.851 154.4,-90.298c24.213,-4.876 22.492,-7.615 44.194,-19.058c17.184,-14.128 141.734,-75.009 154.261,-81.132c4.472,-0.7 18.752,-2.936 52.597,-20.84c10.243,-7.155 85.699,-41.04 91.072,-43.954c0.196,-0.106 54.695,-23.142 63.178,-27.462c1.44,-0.733 14.167,-7.213 18.581,-7.911c21.442,-8.936 21.804,-5.28 43.006,-14.424c19.486,-8.107 214.262,-89.14 246.259,-94.644c8.405,-1.868 16.811,-3.735 25.216,-5.603c145.122,-46.782 145.345,-43.573 290.481,-87.896l17.264,-3.282c12.1,-2.925 24.201,-5.851 36.301,-8.776c23.416,-5.895 22.591,-5.979 36.26,-8.752c283.832,-69.431 420.232,-80.759 453.343,-87.19c8.964,-0.694 17.928,-1.388 26.893,-2.081c1.813,-0.517 1.799,-0.396 54.578,-6.845c11.922,-1.263 23.843,-2.527 35.765,-3.79c15.259,-1.45 30.517,-2.9 45.776,-4.35l35.852,-3.802c36.099,-7.925 36.001,-4.562 72.698,-5.617l35.986,-3.17c192.026,-20.113 499.665,-6.24 543.068,-4.283c7.953,0.359 25.013,1.128 99.51,1.118Z" style="fill:#4d5e53;fill-opacity:1;"/><path d="M1375.125,5088.969c43.006,-314.862 188.474,-1559.914 1352.713,-2632.588c1624.428,-1496.669 4119.625,-1443.59 5674.034,-45.992c151.373,136.102 781.862,690.181 1150.875,1655.705c1018.735,2665.529 -815.551,5483.533 -3540.091,5749.063c-2750.804,268.09 -4959.38,-2091.601 -4637.53,-4726.188Z" style="fill:#fefefe;"/><path d="M1899.891,6021.954c-2.579,-25.323 -11.148,-70.968 -20.56,-244.897c-56.122,-1037.116 345.07,-2203.953 1306.161,-3017.507c1866.572,-1580.036 4617.299,-940.723 5687.9,1089.412c953.836,1808.717 237.337,3862.322 -1195.38,4815.644c-2330.71,1550.841 -5422.859,150.615 -5778.121,-2642.651Z" style="fill:#4d5e53;"/><path d="M5488.313,5065.998c-76.771,21.367 -76.302,21.014 -147.809,55.328c-32.376,15.536 -35.602,0.865 -128.172,-128.687c-986.356,-1380.399 -1038.754,-1358.588 -1102.407,-1640.217c-145.627,-644.315 457.01,-1261.749 1152.114,-1043.371c179.009,56.239 326.426,194.176 334.08,194.361c43.651,1.054 173.203,-226.356 615.41,-238.624c616.456,-17.103 1207.897,727.612 709.674,1433.728c-39.84,56.465 -982.537,1353.32 -1012.85,1394.255c-7.753,10.47 -21.974,45.193 -49.102,31.584c-169.964,-85.265 -208.974,-42.259 -209.418,-89.214c-4.079,-431.326 21.359,-508.263 -44.739,-524.079c-26.013,-6.225 -60.93,18.505 -61.743,53.587c-2.347,101.205 3.396,477.867 -3.741,486.882c-2.646,3.343 -3.742,1.055 -51.297,14.468Z" style="fill:#fefefe;"/><path d="M5497.388,6116.641c8.021,1.216 57.555,1.766 59.073,22.932c0.005,0.064 1.174,1722.627 -0.584,1818.401c-9.192,500.699 -514.769,985.313 -1127.367,824.774c-276.294,-72.406 -540.914,-309.769 -625.444,-625.162c-15.154,-56.541 -0.559,-75.596 -34.862,-73.628c-39.09,2.242 -618.259,82.152 -909.454,-512.764c-198.328,-405.188 -44.7,-1024.132 530.391,-1220.822c33.874,-11.585 1694.023,-551.564 1700.561,-552.125c25.199,-2.164 29.243,66.751 118.004,159.293c29.202,30.446 29.508,36.866 5.258,70.749c-236.27,330.129 -298.27,374.589 -259.588,427.866c50.433,69.462 113.192,-48.186 214.201,-183.705c152.328,-204.37 149.939,-222.279 173.969,-211.518c75.908,33.996 75.271,33.478 155.842,55.708Z" style="fill:#fefefe;"/><path d="M3098.524,6316.111c-866.02,-33.964 -1109.229,-936.576 -711.094,-1440.792c161.045,-203.955 289.1,-214.085 272.269,-254.759c-365.273,-882.734 601.397,-1566.763 1292.365,-1119.244c212.333,137.522 242.746,237.552 815.037,1015.474c38.341,52.117 458.314,622.992 474.776,654.735c11.354,21.895 -58.878,60.235 -111.871,155.57c-18.034,32.443 -13.16,50.718 -48.605,39.428c-458.347,-145.99 -494.746,-177.482 -511.758,-106.193c-14.273,59.812 36.304,63.176 265.576,139.34c225.431,74.888 236.823,69.423 235.303,87.967c-8.979,109.553 -8.663,108.952 3.525,217.241c1.647,14.63 -5.528,13.963 -327.673,120.192c-434.023,143.122 -434.896,137.545 -868.482,281.246c-634.98,210.447 -638.304,203.446 -779.368,209.794Z" style="fill:#fefefe;"/><path d="M8093.866,6316.13c-172.399,-7.935 -207.078,-22.341 -444.533,-101.244c-120.585,-40.068 -121.904,-35.715 -1510.854,-490.054c-33.496,-10.957 -17.767,-22.36 -11.893,-56.878c18.251,-107.248 -8.446,-170.556 -1.531,-187.426c5.643,-13.767 381.976,-126.688 465.864,-157.48c42.646,-15.653 46.957,-81.873 0.904,-98.38c-45.916,-16.458 -466.676,148.318 -497.938,145.551c-36.383,-3.22 -1.287,-41.483 -134.744,-173.161c-14.001,-13.814 -14.425,-19.023 21.59,-68.189c279.786,-381.954 567.457,-779.358 616.613,-847.265c462.096,-638.364 502.776,-712.908 709.968,-819.608c733.887,-377.939 1559.617,354.994 1234.379,1140.667c-36.561,88.32 97.235,28.956 298.056,321.196c353.062,513.785 89.811,1360.594 -745.881,1392.271Z" style="fill:#fefefe;"/><path d="M5695.027,6116.787c59.302,-15.423 59.822,-12.163 116.593,-36.111c20.433,-8.619 42.727,-44.041 79.935,6.536c265.266,360.584 273.567,405.895 330.792,381.577c72.789,-30.932 12.993,-88.266 -132.385,-290.596c-124.263,-172.943 -145.338,-181.592 -118.7,-206.963c95.415,-90.874 102.523,-155.268 120.629,-169.728c18.434,-14.721 21.427,-2.155 282.854,83.354c1480.882,484.372 1484.382,475.862 1580.912,530.271c715.357,403.218 547.517,1434.833 -179.44,1639.299c-251.218,70.658 -361.631,4.218 -372.571,47.704c-270.011,1073.263 -1769.327,873.089 -1766.652,-216.42c0.019,-7.734 0.054,-1736.668 0.061,-1737.602c0.253,-32.227 35.488,-27.827 57.973,-31.321Z" style="fill:#fefefe;"/><path d="M5166.889,5714.93c-0.332,-1.661 -33.833,-97.15 -8.05,-218.943c10.276,-48.544 37.674,-108.373 52.265,-132.696c234.986,-391.716 805.864,-214.222 831.528,187.44c34.275,536.437 -710.585,681.18 -875.742,164.199Z" style="fill:#fefefe;"/><path d="M7740.526,1497.541c15.483,-5.806 15.41,-6.836 16.722,-6.271c25.499,10.995 33.008,6.091 37.303,33.797c-49.809,-26.777 -49.836,-25.081 -54.025,-27.527Z" style="fill:#4b5b51;fill-opacity:0.15;"/><path d="M1497.523,7740.535c14.375,24.661 17.528,23.371 20.993,51.976c-5.629,-4.184 -6.984,-1.682 -10.375,-7.711c-12.167,-21.63 -19.198,-21.291 -10.618,-44.265Z" style="fill:#4b5c51;fill-opacity:0.13;"/><path d="M8905.217,2359.553c7.461,7.242 10.172,1.89 17.746,9.404c2.018,2.002 -1.51,6.513 0.511,8.512c2.038,2.016 6.571,-1.555 8.584,0.485c2.018,2.045 -1.656,6.595 0.391,8.611c2.072,2.04 6.702,-1.739 8.717,0.358c2.034,2.117 -1.948,6.695 0.09,8.807c1.976,2.047 6.586,-1.946 8.533,0.128c0,0 0.584,15.615 0.635,16.973c-23.599,-21.416 -22.12,-22.009 -44.537,-44.929c0,0 -0.671,-8.348 -0.671,-8.348Z" style="fill:#4a5b50;fill-opacity:0.22;"/><path d="M2359.549,8905.216l8.336,0.688c22.725,22.19 23.304,20.721 44.944,44.531c-15.71,-0.602 -15.977,0.281 -16.966,-0.65c-2.074,-1.95 1.928,-6.564 -0.12,-8.541c-2.115,-2.04 -6.695,1.953 -8.815,-0.082c-2.099,-2.014 1.686,-6.647 -0.355,-8.719c-2.018,-2.048 -6.572,1.634 -8.616,-0.388c-2.041,-2.019 1.547,-6.558 -0.471,-8.6c-2,-2.024 -6.519,1.521 -8.522,-0.499c-2.017,-2.035 1.534,-6.547 -0.482,-8.583c-3.54,-3.575 -4.98,3.121 -8.521,-0.509c-3.556,-3.646 3.157,-4.99 -0.412,-8.648Z" style="fill:#4a5b50;fill-opacity:0.22;"/><path d="M7541.179,1398.677c1.36,-0.556 16.998,-6.952 16.998,-6.952c2.812,1.431 31.785,16.171 34.562,19.003c1.931,1.969 -0.729,6.216 1.202,8.185c-28.886,-2.585 -27.182,-7.02 -52.763,-20.236Z" style="fill:#495a4f;fill-opacity:0.18;"/><path d="M1398.663,7541.183c15.976,30.93 19.371,48.332 20.237,52.77c-1.953,-1.934 -6.2,0.708 -8.153,-1.225c-2.788,-2.761 -17.581,-31.743 -19.015,-34.554c-0.667,-1.308 0.5,-1.226 6.931,-16.991Z" style="fill:#4a5b50;fill-opacity:0.17;"/><path d="M9682.2,7747.786c-3.001,9.558 2.798,9.241 0.026,18.068c-2.001,6.373 -5.449,2.776 -8.608,9.263c-9.016,18.515 -3.742,24.278 -23.136,29.217c16.261,-28.185 12.556,-29.61 31.717,-56.548Z" style="fill:#48584e;fill-opacity:0.24;"/><path d="M7801.851,9655.759c-3.712,3.817 2.367,4.888 -0.986,8.336c-0.436,0.449 -0.421,-3.373 -7.793,0.691c-26.927,14.845 -24.753,16.66 -27.22,17.436c-5.741,1.807 -12.315,-1.812 -18.057,-0.005c24.926,-17.743 24.542,-17.761 54.056,-26.458Z" style="fill:#49594f;fill-opacity:0.23;"/><path d="M8778.812,2241.961l8.746,0.158c3.868,3.69 5.041,-3.571 8.843,0.057c3.717,3.546 -3.355,4.958 0.354,8.718c2.02,2.048 6.575,-1.639 8.622,0.383c2.042,2.018 -1.547,6.558 0.471,8.6c2,2.024 6.519,-1.522 8.522,0.499c2.017,2.035 -1.534,6.547 0.482,8.583c2.002,2.022 6.534,-1.527 8.521,0.509c2.015,2.066 -1.603,6.582 0.412,8.648l-8.336,-0.688c-15.042,-14.688 -33.698,-32.64 -36.637,-35.469Z" style="fill:#4a5b50;fill-opacity:0.22;"/><path d="M1524.236,3388.289c-2.069,3.669 -1.792,3.424 -24.577,46.567c0.175,-3.842 -7.993,-4.644 -7.818,-8.485c0.191,-4.203 6.791,-5.429 8.624,-9.216c0.08,-0.165 -0.36,-23.641 23.771,-28.865Z" style="fill:#495a4f;fill-opacity:0.21;"/><path d="M3434.858,1499.673c-21.701,11.442 -19.981,14.182 -44.194,19.058c1.937,-2.191 -1.228,-6.553 0.708,-8.743c1.456,-1.647 2.364,1.814 25.78,-9.523c3.787,-1.833 5.011,-8.439 9.214,-8.627c3.847,-0.172 4.643,8.008 8.491,7.836Z" style="fill:#4a5b50;fill-opacity:0.19;"/><path d="M3641.717,1397.702c-33.845,17.904 -48.125,20.14 -52.597,20.84c29.276,-18.762 28.119,-29.064 52.597,-20.84Z" style="fill:#46554b;fill-opacity:0.21;"/><path d="M1418.526,3589.104c-0.697,4.473 -2.911,18.685 -20.83,52.61c-0.914,-2.725 -18.116,-10.593 20.83,-52.61Z" style="fill:#46554b;fill-opacity:0.21;"/><path d="M3160.903,9525.166c24.442,15.22 25.255,12.708 48.148,31.203c-14.024,-4.585 -14.067,-2.115 -27.048,-8.842c-2.184,-1.132 -15.076,-7.813 -21.1,-22.361Z" style="fill:#47574c;fill-opacity:0.25;"/><path d="M2241.922,8778.842c2.122,2.2 19.234,19.947 26.543,27.486l0.508,8.515c-2.031,-2.022 -6.553,1.539 -8.584,-0.483c-2.021,-2.012 1.548,-6.537 -0.48,-8.542c-2.046,-2.023 -6.601,1.598 -8.62,-0.452c-2.026,-2.058 1.707,-6.628 -0.349,-8.656c-3.781,-3.729 -5.183,3.416 -8.753,-0.32c-3.711,-3.885 3.622,-5.051 -0.028,-8.872l-0.238,-8.676Z" style="fill:#4b5b50;fill-opacity:0.22;"/><path d="M9531.744,3171.57c24.63,4.275 16.7,13.16 24.609,37.49c-14.161,-17.509 -12.127,-17.692 -24.609,-37.49Z" style="fill:#495a4f;fill-opacity:0.23;"/><path d="M1633.114,3198.44c-12.139,19.325 -10.294,19.939 -24.116,37.807c8.05,-24.419 0.299,-32.992 24.116,-37.807Z" style="fill:#49594e;fill-opacity:0.25;"/><path d="M9565.35,7956.127c-7.938,24.166 0.039,33.037 -24.324,37.713c12.364,-19.129 10.203,-19.601 24.324,-37.713Z" style="fill:#47564c;fill-opacity:0.23;"/><path d="M3236.265,1609.029c-16.566,12.809 -16.259,12.122 -35.612,18.128c1.946,-2.102 -1.228,-6.462 0.718,-8.564c0.428,-0.463 0.773,3.018 7.849,-0.689c12.897,-6.756 12.961,-4.253 27.045,-8.875Z" style="fill:#4a5a4f;fill-opacity:0.23;"/><path d="M7974.547,1626.422c24.914,9.239 32.605,2.578 37.642,24.523c-29.144,-18.376 -28.67,-17.518 -37.642,-24.523Z" style="fill:#46554b;fill-opacity:0.24;"/><path d="M7991.69,9547.152c-3.331,3.649 2.643,4.942 -0.671,8.573c-0.424,0.464 -0.814,-2.937 -7.823,0.733c-12.841,6.725 -12.901,4.247 -27.065,8.91c16.419,-12.832 15.728,-13.728 35.558,-18.216Z" style="fill:#47574d;fill-opacity:0.22;"/><path d="M1850.157,2872.626c-13.353,17.76 -24.387,33.717 -26.446,36.693c0.717,-5.596 1.434,-11.192 2.152,-16.788c1.964,-1.796 -1.457,-6.171 0.506,-7.967c2.118,-1.937 6.499,1.591 8.601,-0.363c0.054,-0.05 -6.2,-6.654 15.186,-11.575Z" style="fill:#49594f;fill-opacity:0.3;"/><path d="M2863.33,9324.469c2.942,2.108 29.217,20.94 36.851,26.24c-5.56,-0.767 -11.12,-1.533 -16.68,-2.3c-1.793,-1.963 -6.167,1.444 -7.96,-0.52c-1.933,-2.117 1.583,-6.487 -0.363,-8.593c-3.27,-3.539 -4.693,2.718 -8.136,-0.604c-0.846,-0.817 -0.275,-1.054 -3.713,-14.224Z" style="fill:#49594e;fill-opacity:0.29;"/><path d="M9364.357,8259.283c0.204,1.311 0.897,2.513 1.101,3.824c0.461,2.969 3.636,23.395 -23.281,29.469c6.257,-8.316 4.884,-8.607 10.86,-16.783c6.104,-8.351 5.513,-8.04 11.32,-16.51Z" style="fill:#4a5a4f;fill-opacity:0.25;"/><path d="M9260.295,8400.834c6.081,14.786 7.577,15.003 6.545,15.914c-2.144,1.893 -6.51,-1.708 -8.575,0.27c-2.014,1.929 1.663,6.515 -0.432,8.355c-2.31,2.029 -6.914,-1.903 -9.224,0.126l0.383,-8.404c3.768,-5.42 7.536,-10.841 11.304,-16.261Z" style="fill:#4d5e53;fill-opacity:0.16;"/><path d="M8417.095,9248.999l8.405,-0.388c-2.027,2.31 1.897,6.909 -0.13,9.219c-1.839,2.095 -6.421,-1.57 -8.35,0.442c-1.975,2.06 1.614,6.423 -0.28,8.559c-0.912,1.028 -1.127,-0.462 -15.891,-6.516c5.415,-3.772 10.83,-7.544 16.246,-11.316Z" style="fill:#4d5e53;fill-opacity:0.16;"/><path d="M9790.657,7531.36c-5.844,11.924 -11.688,23.847 -17.533,35.771c4.343,-20.269 4.654,-19.482 17.533,-35.771Z" style="fill:#47574d;fill-opacity:0.27;"/><path d="M7567.131,9773.124c-11.924,5.844 -23.847,11.688 -35.771,17.533c16.289,-12.879 15.502,-13.19 35.771,-17.533Z" style="fill:#47574d;fill-opacity:0.27;"/><path d="M9342.177,8292.576c-2.139,14.527 -5.626,30.297 -26.264,36.848c2.113,-2.939 20.367,-28.326 26.264,-36.848Z" style="fill:#47574d;fill-opacity:0.31;"/><path d="M7938.82,1607.445c3.446,0.341 4.514,-7.018 7.96,-6.677c15.521,1.537 19.569,20.805 20.073,23.207c-10.557,-6.583 -25.771,-15.242 -28.033,-16.53Z" style="fill:#495a4f;fill-opacity:0.24;"/><path d="M1939.693,2754.25c-11.266,15.983 -11.067,15.205 -24.18,29.256c0.449,-4.651 -3.331,-22.086 24.18,-29.256Z" style="fill:#4a5b50;fill-opacity:0.27;"/><path d="M3857.554,1303.951c-21.202,9.144 -21.564,5.488 -43.006,14.424c27.378,-23.09 30.373,-15.349 43.006,-14.424Z" style="fill:#46554b;fill-opacity:0.27;"/><path d="M1318.367,3814.544c-8.898,21.272 -5.257,21.726 -14.42,43.009c-0.925,-12.72 -8.601,-15.676 14.42,-43.009Z" style="fill:#46554b;fill-opacity:0.27;"/><path d="M7288.111,1289.492c11.688,-4.051 14.003,-7.894 35.115,11.562c-2.875,-0.693 -20.864,-5.032 -35.115,-11.562Z" style="fill:#49594e;fill-opacity:0.24;"/><path d="M1289.448,7288.129c6.508,14.192 10.881,32.233 11.578,35.107c-19.423,-21.169 -15.564,-23.483 -11.578,-35.107Z" style="fill:#49594e;fill-opacity:0.25;"/><path d="M2902.077,1826.63c-12.392,11.403 -11.227,12.213 -27.086,17.43c2.017,-1.991 -1.036,-6.456 0.981,-8.446c1.958,-1.933 6.356,1.373 8.229,-0.643c3.44,-3.702 -3.003,-4.921 0.362,-8.602c-0,-0 16.113,0.24 17.514,0.261Z" style="fill:#4b5b50;fill-opacity:0.23;"/><path d="M8290.254,9348.304c-3.541,3.428 2.569,5.028 -0.978,8.462c-3.529,3.416 -4.957,-3.093 -8.315,0.534c-1.26,1.36 5.137,9.565 -8.278,9.127c-3.206,-0.105 -6.367,-0.864 -9.573,-0.969c12.434,-11.131 11.603,-12.047 27.145,-17.154Z" style="fill:#4b5b50;fill-opacity:0.23;"/><path d="M9330.427,2865.975c7.328,7.593 9.642,2.434 17.468,9.562c0,0 -0.076,16.021 -0.082,17.415c-11.467,-12.334 -12.293,-11.186 -17.386,-26.977Z" style="fill:#4b5b50;fill-opacity:0.23;"/><path d="M9477.316,8093.145c-1.14,6.138 8.27,1.233 7.003,8.05c-0.181,0.975 -3.391,-3.193 -9.889,7.483c-1.513,2.485 2.028,6.62 0.023,8.728c0,0 -13.312,3.102 -14.469,3.371c7.04,-10.448 15.991,-25.394 17.332,-27.633Z" style="fill:#4a5a50;fill-opacity:0.26;"/><path d="M2783.508,1915.514c-11.791,11.018 -10.3,11.721 -25.423,19.255c1.088,-2.4 -9.285,-15.922 25.423,-19.255Z" style="fill:#4a5a50;fill-opacity:0.25;"/><path d="M9873.617,3841.853c18.475,20.9 15.49,22.777 11.475,35.159c-6.498,-13.891 -10.801,-32.278 -11.475,-35.159Z" style="fill:#46554b;fill-opacity:0.24;"/><path d="M3841.846,9873.641c2.88,0.677 21.369,5.023 35.157,11.474c-12.199,3.932 -14.124,7.067 -35.157,-11.474Z" style="fill:#46554b;fill-opacity:0.24;"/><path d="M1607.412,7938.836c8.27,12.149 7.411,12.018 10.797,25.715c-2.073,-1.991 -6.518,1.261 -8.591,-0.73c-1.919,-1.844 0.759,-5.607 -0.465,-7.97c-5.62,-10.846 -8.269,-8.096 -8.369,-9.078c-0.591,-5.781 7.27,-1.671 6.629,-7.936Z" style="fill:#4b5b50;fill-opacity:0.21;"/><path d="M8299.844,1843.591l8.292,0.787c11.696,6.294 11.914,5.314 18.38,17.299c-14.813,-6.971 -13.49,-7.865 -26.672,-18.086Z" style="fill:#49594f;fill-opacity:0.27;"/><path d="M9465.96,3064.79c16.225,9.175 16.947,8.383 17.497,9.894c1.924,5.294 -2.279,11.602 -0.354,16.896c-10.703,-11.894 -6.412,-13.998 -17.142,-26.791Z" style="fill:#45554b;fill-opacity:0.2;"/><path d="M8326.509,9321.453c-3.399,3.144 2.391,4.482 -1.371,7.963c-3.379,3.126 -4.785,-2.794 -8.02,0.724c-1.918,2.086 2.056,7.171 -0.453,8.49c-4.996,2.626 -11.923,-1.985 -16.919,0.64c12.063,-11.033 10.877,-12.052 26.763,-17.817Z" style="fill:#4a5a4f;fill-opacity:0.26;"/><path d="M9975.8,4121.239c13.377,10.459 13.676,12.025 7.911,27.501c-0.339,-2.264 -2.558,-17.062 -7.911,-27.501Z" style="fill:#46554b;fill-opacity:0.21;"/><path d="M1843.567,8299.861c18.385,23.761 16.478,24.662 18.086,26.677c-11.919,-6.471 -10.945,-6.672 -17.281,-18.394l-0.805,-8.283Z" style="fill:#48584e;fill-opacity:0.27;"/><path d="M8254.574,1808.889c8.562,2.866 17.124,5.732 25.685,8.598c0,0 -17.114,-0.199 -17.114,-0.199c-2.857,-2.8 -5.715,-5.599 -8.572,-8.399Z" style="fill:#48584e;fill-opacity:0.18;"/><path d="M1808.864,8254.58c2.799,2.862 5.598,5.724 8.397,8.586l0.243,17.082c-2.88,-8.556 -5.76,-17.112 -8.641,-25.668Z" style="fill:#48584e;fill-opacity:0.18;"/><path d="M9257.324,2758.411c3.077,8.48 6.154,16.96 9.23,25.441c-2.888,-2.858 -5.775,-5.716 -8.663,-8.573l-0.567,-16.867Z" style="fill:#48584e;fill-opacity:0.2;"/><path d="M3066.329,9473.901l16.307,1.207c2.978,2.669 5.957,5.337 8.935,8.006c-8.414,-3.071 -16.828,-6.142 -25.242,-9.213Z" style="fill:#48584e;fill-opacity:0.22;"/><path d="M1636.466,7992.051c7.822,9.663 7.465,9.119 14.439,20.164c-1.133,-0.264 -14.165,-3.305 -14.165,-3.305c-2.467,-5.05 2.193,-11.809 -0.274,-16.859Z" style="fill:#4a5a4f;fill-opacity:0.26;"/><path d="M3587.305,9758.753c9.307,4.652 9.334,3.224 18.638,7.849c-1.378,0.562 -12.651,20.286 -18.638,-7.849Z" style="fill:#4a5b50;fill-opacity:0.2;"/><path d="M8283.438,1832.228c22.518,3.171 22.582,2.508 24.32,3.425c2.575,1.358 -2.197,7.367 0.378,8.725l-8.292,-0.787c-5.469,-3.788 -10.937,-7.575 -16.406,-11.363Z" style="fill:#4a5b50;fill-opacity:0.3;"/><path d="M4509.335,1094.999c-13.67,2.773 -12.844,2.857 -36.26,8.752c15.131,-12.88 16.263,-9.938 36.26,-8.752Z" style="fill:#46564c;fill-opacity:0.37;"/><path d="M10070.704,4445.886c12.765,15.08 10.002,16.148 8.928,36.256c-2.863,-14.009 -2.972,-13.16 -8.928,-36.256Z" style="fill:#46554b;fill-opacity:0.36;"/><path d="M8263.146,1817.288l17.114,0.199c1.06,4.914 2.119,9.828 3.179,14.741c-10.133,-7.612 -18.657,-13.761 -20.292,-14.94Z" style="fill:#495a4f;fill-opacity:0.29;"/><path d="M4473.075,1103.751c-12.1,2.925 -24.201,5.851 -36.301,8.776c15.229,-12.571 16.488,-9.393 36.301,-8.776Z" style="fill:#45554b;fill-opacity:0.36;"/><path d="M1825.864,2892.531c-0.717,5.596 -1.434,11.192 -2.152,16.788c-2.526,3.348 -5.052,6.696 -7.579,10.044c1.092,-10.599 2.263,-9.806 9.73,-26.832Z" style="fill:#44534a;fill-opacity:0.3;"/><path d="M8870.487,2331.152c14.936,2.135 15.187,1.406 16.131,2.306c2.072,1.975 -2.047,6.611 0.025,8.587l1.285,7.636c-9.262,-9.486 -8.866,-9.077 -17.441,-18.529Z" style="fill:#4a5b50;fill-opacity:0.29;"/><path d="M2755.127,9242.53c10.203,7.712 9.657,7.29 20.125,15.392l-8.322,-0.413c-3.666,-3.476 -4.861,3.26 -8.509,-0.198c-0.879,-0.834 -0.244,-1.095 -3.294,-14.781Z" style="fill:#495a4f;fill-opacity:0.3;"/><path d="M2883.502,9348.409c5.56,0.767 11.12,1.533 16.68,2.3c3.338,2.564 6.676,5.128 10.015,7.691l-7.909,-1.348c-6.262,-2.881 -12.524,-5.762 -18.785,-8.643Z" style="fill:#445349;fill-opacity:0.3;"/><path d="M8833.686,2295.368l7.606,1.314c1.971,2.069 6.601,-2.026 8.573,0.043c0,0 2.147,14.818 2.334,16.106c-9.461,-8.589 -9.054,-8.194 -18.512,-17.463Z" style="fill:#4a5b50;fill-opacity:0.29;"/><path d="M2331.122,8870.507c9.548,8.654 9.151,8.275 18.525,17.459c-0,-0 -7.606,-1.314 -7.606,-1.314c-1.971,-2.069 -6.601,2.025 -8.572,-0.043c-0.898,-0.942 -0.174,-1.193 -2.347,-16.101Z" style="fill:#4a5b50;fill-opacity:0.29;"/><path d="M2295.354,8833.706c9.114,9.341 8.701,8.902 17.451,18.521c-1.285,-0.191 -16.063,-2.381 -16.063,-2.381c-2.063,-1.966 2.007,-6.584 -0.056,-8.55l-1.333,-7.589Z" style="fill:#4a5b50;fill-opacity:0.29;"/><path d="M2766.931,9257.509l8.322,0.413l12.364,7.562c-1.652,0.071 -20.649,0.887 -20.649,0.887c-2.603,-1.396 2.567,-7.466 -0.036,-8.862Z" style="fill:#4d5e53;fill-opacity:0.23;"/><path d="M1100.881,4474.641c-2.909,18.957 -2.212,18.317 -8.594,36.299c2.066,-32.171 6.588,-30.897 8.594,-36.299Z" style="fill:#4b5b51;fill-opacity:0.35;"/><path d="M9248.991,8417.095l-0.383,8.404c-4.815,5.088 -1.841,7.594 -8.83,9.331c-3.446,0.856 -2.462,1.755 -6.024,2.64c7.732,-10.346 7.204,-9.64 15.237,-20.375Z" style="fill:#49594f;fill-opacity:0.3;"/><path d="M4447.458,10073.634c18.989,2.918 18.42,2.354 36.03,9.114c-34.607,-3.083 -32.672,-7.854 -36.03,-9.114Z" style="fill:#4a5b50;fill-opacity:0.34;"/><path d="M8173.565,1752.973c4.713,2.624 11.383,-0.95 16.095,1.674c0,0 3.353,12.637 3.644,13.736c-10.908,-7.792 -10.124,-7.213 -19.74,-15.41Z" style="fill:#49594e;fill-opacity:0.29;"/><path d="M8408.306,1925.07c0.044,0.024 13.564,-5.706 17.453,9.456c0.907,3.537 1.819,2.539 2.697,5.961c-10.302,-7.796 -9.735,-7.36 -20.149,-15.417Z" style="fill:#49594e;fill-opacity:0.31;"/><path d="M1109.574,4438.385c-2.964,19.21 -2.455,18.588 -8.693,36.256c2.361,-29.77 5.807,-28.449 8.693,-36.256Z" style="fill:#4a5a50;fill-opacity:0.35;"/><path d="M8997.084,8716.64l-1.624,7.406c-5.015,4.832 -2.117,7.551 -9.176,8.842c-3.801,0.695 -2.857,1.573 -6.79,2.292c8.787,-9.262 16.183,-17.057 17.59,-18.54Z" style="fill:#4a5a4f;fill-opacity:0.31;"/><path d="M8735.18,8979.494c-2.594,14.185 -1.937,14.423 -2.802,15.32c-3.413,3.542 -4.907,-2.909 -8.333,0.646c0,-0 -7.406,1.624 -7.406,1.624c1.483,-1.407 9.278,-8.802 18.54,-17.59Z" style="fill:#4a5a4f;fill-opacity:0.31;"/><path d="M1835.106,8290.639c2.82,3.074 5.641,6.148 8.461,9.222l0.805,8.283c-3.089,-5.835 -6.178,-11.67 -9.266,-17.505Z" style="fill:#4c5d52;fill-opacity:0.22;"/><path d="M2556.487,9079.259c9.481,8.513 17.446,15.615 18.966,16.97l-7.576,-1.435c-3.464,-3.508 -4.859,3.039 -8.34,-0.486c-0.863,-0.874 -0.226,-1.115 -3.05,-15.049Z" style="fill:#495a4f;fill-opacity:0.31;"/><path d="M6021.363,983.666c12.086,2.431 24.172,4.862 36.257,7.293c-12.086,-2.431 -24.172,-4.862 -36.257,-7.293Z" style="fill:#4a5b50;fill-opacity:0.37;"/><path d="M10199.668,5994.213c-2.421,12.089 -4.842,24.179 -7.263,36.268c2.421,-12.089 4.842,-24.179 7.263,-36.268Z" style="fill:#4a5b50;fill-opacity:0.37;"/><path d="M987.147,6021.775l3.797,35.848c-4.461,-17.778 -4.985,-17.329 -3.797,-35.848Z" style="fill:#4a5a50;fill-opacity:0.39;"/><path d="M5994.624,10196.183l35.859,-3.766c-17.728,4.429 -17.28,4.958 -35.859,3.766Z" style="fill:#4a5a50;fill-opacity:0.39;"/><path d="M8608.049,2086.907l7.461,1.575c4.853,4.886 7.401,2.022 8.929,8.991c0.802,3.659 1.708,2.677 2.537,6.461c-9.46,-8.548 -17.41,-15.668 -18.927,-17.027Z" style="fill:#49594f;fill-opacity:0.32;"/><path d="M5125.69,990.741c17.815,-4.415 17.363,-4.979 35.852,-3.802l-35.852,3.802Z" style="fill:#49594f;fill-opacity:0.39;"/><path d="M10192.605,5152.834c4.398,17.782 4.966,17.332 3.791,35.855c0,0 -3.791,-35.855 -3.791,-35.855Z" style="fill:#49594f;fill-opacity:0.39;"/><path d="M990.728,5125.689c-2.391,12.091 -4.782,24.181 -7.172,36.272c2.391,-12.091 4.782,-24.181 7.172,-36.272Z" style="fill:#495a4f;fill-opacity:0.37;"/><path d="M2268.465,8806.327c2.976,3.052 5.953,6.104 8.929,9.156c-0,-0 0.735,8.284 0.735,8.284c-3.052,-2.975 -6.104,-5.95 -9.156,-8.925c0,0 -0.508,-8.515 -0.508,-8.515Z" style="fill:#4c5d52;fill-opacity:0.22;"/><path d="M5152.832,10192.628c12.094,2.387 24.187,4.774 36.281,7.162c-12.094,-2.387 -24.187,-4.774 -36.281,-7.162Z" style="fill:#495a4f;fill-opacity:0.37;"/><path d="M2133.283,8661.701c2.985,2.931 5.97,5.862 8.955,8.793l0.475,8.429c-2.009,-2.048 -6.595,1.876 -8.604,-0.172c-0.956,-0.975 -0.061,-1.263 -0.826,-17.051Z" style="fill:#4d5e53;fill-opacity:0.21;"/><path d="M9087.151,8617.045c-2.063,14.516 -2.739,15.582 -17.366,18.348c8.734,-9.894 8.099,-9.22 17.366,-18.348Z" style="fill:#4a5b50;fill-opacity:0.32;"/><path d="M8770.529,2232.845c18.366,0.781 14.303,6.712 17.029,9.274c-0,-0 -8.746,-0.158 -8.746,-0.158c-2.761,-3.039 -5.522,-6.077 -8.283,-9.116Z" style="fill:#4d5e53;fill-opacity:0.2;"/><path d="M8635.394,9069.787c-2.773,14.626 -3.839,15.298 -18.342,17.371c9.158,-9.294 8.478,-8.651 18.342,-17.371Z" style="fill:#4a5b50;fill-opacity:0.32;"/><path d="M10208.3,5876.608c-2.163,12.093 -4.327,24.186 -6.49,36.279c2.163,-12.093 4.327,-24.186 6.49,-36.279Z" style="fill:#4a5a50;fill-opacity:0.37;"/><path d="M8895.959,2350.725c3.086,2.943 6.172,5.886 9.258,8.828c-0,-0 0.671,8.348 0.671,8.348c-2.989,-3.04 -5.978,-6.08 -8.967,-9.12c0,0 -0.962,-8.057 -0.962,-8.057Z" style="fill:#4c5d52;fill-opacity:0.22;"/><path d="M5876.887,10204.905l36.001,-3.079c-18.006,4.089 -17.561,4.651 -36.001,3.079Z" style="fill:#495a4f;fill-opacity:0.39;"/><path d="M2303.202,2339.416c-8.986,9.114 -8.382,8.505 -17.985,18.18l2.017,-7.011c0.159,-0.153 -6.131,-6.572 15.969,-11.169Z" style="fill:#49594f;fill-opacity:0.32;"/><path d="M2232.81,8770.547c3.037,2.765 6.074,5.529 9.111,8.294l0.238,8.676c-2.272,-2.408 -8.498,1.775 -9.35,-16.97Z" style="fill:#4d5e53;fill-opacity:0.2;"/><path d="M2350.585,2287.234l7.011,-2.017c-9.671,9.598 -9.067,8.998 -18.186,17.981c4.6,-22.062 11.053,-15.837 11.175,-15.964Z" style="fill:#49594f;fill-opacity:0.32;"/><path d="M1916.497,8399.218c2.842,3.042 5.684,6.084 8.527,9.126l0.812,8.057c-3.113,-5.727 -6.226,-11.455 -9.338,-17.182Z" style="fill:#4c5d52;fill-opacity:0.23;"/><path d="M8815.449,2277.43l8.336,0.688c2.945,3.083 5.889,6.166 8.834,9.249l-8.032,-0.981c-3.046,-2.985 -6.091,-5.971 -9.137,-8.956Z" style="fill:#4c5d52;fill-opacity:0.22;"/><path d="M2350.715,8895.967l8.032,0.981c3.046,2.985 6.091,5.971 9.137,8.956l-8.336,-0.688c-2.945,-3.083 -5.889,-6.166 -8.834,-9.249Z" style="fill:#4c5d52;fill-opacity:0.22;"/><path d="M2277.394,8815.484c2.991,3.038 5.982,6.076 8.973,9.114c0,-0 1.014,8.006 1.014,8.006c-3.084,-2.945 -6.168,-5.89 -9.252,-8.836l-0.735,-8.284Z" style="fill:#4c5d52;fill-opacity:0.22;"/><path d="M5912.805,974.986c12.089,2.187 24.179,4.375 36.268,6.562c-12.089,-2.187 -24.179,-4.375 -36.268,-6.562Z" style="fill:#495a4f;fill-opacity:0.37;"/><path d="M978.3,5913.099l3.233,35.977c-4.087,-17.766 -4.785,-17.285 -3.233,-35.977Z" style="fill:#49594f;fill-opacity:0.4;"/><path d="M5270.432,10202.039c12.098,2.115 24.196,4.23 36.294,6.345c-12.098,-2.115 -24.196,-4.23 -36.294,-6.345Z" style="fill:#49594f;fill-opacity:0.37;"/><path d="M10202.005,5270.434c3.999,17.946 4.61,17.51 3.046,35.999c0,-0 -3.046,-35.999 -3.046,-35.999Z" style="fill:#49594e;fill-opacity:0.4;"/><path d="M8670.473,2142.262c5.862,3.107 11.725,6.214 17.587,9.322l-8.075,-0.919c-3.171,-2.801 -6.342,-5.602 -9.512,-8.403Z" style="fill:#4c5d52;fill-opacity:0.23;"/><path d="M2142.238,8670.494c2.801,3.17 5.603,6.34 8.404,9.511l0.948,8.05c-2.959,-3.044 -5.918,-6.088 -8.877,-9.132c0,-0 -0.475,-8.429 -0.475,-8.429Z" style="fill:#4c5d52;fill-opacity:0.24;"/><path d="M5062.287,10184.169c19.245,1.866 18.249,2.649 36.344,7.024c-12.115,-2.341 -24.23,-4.683 -36.344,-7.024Z" style="fill:#49594e;fill-opacity:0.37;"/><path d="M8886.643,2342.044c3.105,2.893 6.211,5.787 9.316,8.68l0.962,8.057c-2.997,-3.033 -5.995,-6.067 -8.992,-9.1c-0,-0 -1.285,-7.636 -1.285,-7.636Z" style="fill:#4c5c52;fill-opacity:0.22;"/><path d="M6102.803,992.11c12.115,2.346 24.23,4.691 36.344,7.037c-19.241,-1.887 -18.246,-2.661 -36.344,-7.037Z" style="fill:#49594e;fill-opacity:0.37;"/><path d="M5234.241,981.321c17.856,-4.019 17.371,-4.697 35.986,-3.17l-35.986,3.17Z" style="fill:#48584e;fill-opacity:0.4;"/><path d="M10184.137,5062.291c4.172,17.799 4.489,16.919 3.765,35.763c-1.255,-11.921 -2.51,-23.842 -3.765,-35.763Z" style="fill:#48594e;fill-opacity:0.39;"/><path d="M981.3,5234.239c-2.131,12.095 -4.262,24.19 -6.392,36.284c2.131,-12.095 4.262,-24.19 6.392,-36.284Z" style="fill:#49594e;fill-opacity:0.38;"/><path d="M8824.586,2286.386l8.032,0.981c2.891,3.105 5.783,6.21 8.674,9.315l-7.606,-1.314c-3.033,-2.994 -6.067,-5.988 -9.1,-8.981Z" style="fill:#4c5c51;fill-opacity:0.22;"/><path d="M2342.041,8886.651l7.606,1.314c3.033,2.994 6.067,5.988 9.1,8.981l-8.032,-0.981c-2.891,-3.105 -5.783,-6.21 -8.674,-9.315Z" style="fill:#4c5c51;fill-opacity:0.22;"/><path d="M8553.925,2041.497l7.422,1.707c0.026,0.024 6.001,-5.693 12.135,14.625c-10.356,-8.604 -9.724,-8.078 -19.558,-16.333Z" style="fill:#47574d;fill-opacity:0.33;"/><path d="M2094.246,2564.796c-8.435,9.583 -15.498,17.613 -16.846,19.145l1.781,-7.336c3.441,-3.538 -2.061,-4.592 1.069,-7.81c0.812,-0.835 1.037,-0.296 13.996,-3.999Z" style="fill:#47574d;fill-opacity:0.33;"/><path d="M2286.367,8824.598c2.996,3.036 5.992,6.072 8.987,9.108l1.333,7.589c-3.102,-2.897 -6.204,-5.794 -9.306,-8.691c-0,0 -1.014,-8.006 -1.014,-8.006Z" style="fill:#4c5c51;fill-opacity:0.22;"/><path d="M995.346,6103.389c1.25,11.922 2.5,23.844 3.751,35.766c-4.172,-17.899 -4.474,-17.026 -3.751,-35.766Z" style="fill:#48584e;fill-opacity:0.39;"/><path d="M8698.033,9014.479l8.205,-0.748c-5.016,4.904 -2.272,7.845 -8.711,8.517c-4.136,0.431 -3.284,0.864 -8.203,1.377c2.903,-3.049 5.806,-6.098 8.708,-9.147Z" style="fill:#4c5d52;fill-opacity:0.23;"/><path d="M9023.647,8689.339c-1.606,15.18 -0.813,15.451 -1.735,16.395c-3.394,3.476 -4.794,-2.948 -8.172,0.512c-0,0 0.756,-8.202 0.756,-8.202c3.05,-2.901 6.101,-5.803 9.151,-8.704Z" style="fill:#4c5d52;fill-opacity:0.23;"/><path d="M3061.808,9461.13c10.654,7.09 10.016,6.66 20.828,13.978l-16.307,-1.207c-1.507,-4.257 -3.014,-8.514 -4.521,-12.771Z" style="fill:#47574c;fill-opacity:0.33;"/><path d="M9014.496,8698.044l-0.756,8.202c-3.029,2.969 -6.059,5.938 -9.088,8.907c-0,-0 1.177,-7.827 1.177,-7.827c2.889,-3.094 5.778,-6.187 8.667,-9.281Z" style="fill:#4b5c51;fill-opacity:0.24;"/><path d="M8118.117,9465.451c-6.068,2.822 -12.135,5.645 -18.203,8.467c8.498,-5.625 8.101,-5.184 18.203,-8.467Z" style="fill:#4b5c51;fill-opacity:0.27;"/><path d="M8707.322,9005.827l7.828,-1.176c-2.971,3.027 -5.942,6.054 -8.913,9.08l-8.205,0.748c3.097,-2.884 6.193,-5.768 9.29,-8.652Z" style="fill:#4b5c51;fill-opacity:0.24;"/><path d="M9031.698,2495.25c4.783,4.984 7.789,2.154 8.424,8.777c0.397,4.141 0.957,3.271 1.429,8.196c-2.993,-2.955 -5.987,-5.91 -8.98,-8.866c0,0 -0.872,-8.108 -0.872,-8.108Z" style="fill:#4c5d52;fill-opacity:0.23;"/><path d="M6184.195,1001.377c12.14,2.225 24.28,4.45 36.42,6.675c-18.905,-1.381 -18.395,-1.001 -36.42,-6.675Z" style="fill:#49594f;fill-opacity:0.36;"/><path d="M2495.25,9031.693l8.1,0.881c2.956,2.996 5.912,5.993 8.868,8.989c-4.138,-0.401 -3.267,-0.966 -8.189,-1.443c-6.628,-0.643 -3.797,-3.645 -8.779,-8.427Z" style="fill:#4c5d52;fill-opacity:0.23;"/><path d="M5044.149,998.882c17.997,-4.161 17.129,-4.444 35.765,-3.79c-11.922,1.263 -23.843,2.527 -35.765,3.79Z" style="fill:#47574d;fill-opacity:0.4;"/><path d="M998.863,5044.146c-1.937,19.231 -2.648,18.248 -6.902,36.372c2.301,-12.124 4.601,-24.248 6.902,-36.372Z" style="fill:#47574d;fill-opacity:0.38;"/><path d="M9357.032,2902.302c3.154,5.775 6.309,11.549 9.463,17.324c-6.763,-7.822 -6.246,-7.401 -9.463,-17.324Z" style="fill:#4b5c51;fill-opacity:0.25;"/><path d="M10181.853,6166.109c-2.159,12.141 -4.317,24.282 -6.476,36.423c2.159,-12.141 4.317,-24.282 6.476,-36.423Z" style="fill:#49594e;fill-opacity:0.36;"/><path d="M2902.287,9357.052l7.909,1.348c3.137,2.709 6.274,5.417 9.411,8.126c-5.773,-3.158 -11.546,-6.316 -17.32,-9.474Z" style="fill:#4b5c51;fill-opacity:0.25;"/><path d="M9124.214,8572.413c-0.297,0.47 3.063,12.077 -10.53,16.653c-3.712,1.25 -2.841,1.742 -5.96,2.792c8.402,-9.908 7.827,-9.23 16.49,-19.445Z" style="fill:#46564c;fill-opacity:0.34;"/><path d="M1817.261,8263.166c5.932,8.221 5.447,7.711 8.853,17.95l-8.61,-0.868c0,0 -0.243,-17.082 -0.243,-17.082Z" style="fill:#4b5c51;fill-opacity:0.27;"/><path d="M9879.632,7316.828c1.594,13.266 -1.075,12.472 -6.655,24.374c2.134,-13.013 1.483,-12.383 6.655,-24.374Z" style="fill:#48594e;fill-opacity:0.33;"/><path d="M9022.82,2486.122c2.96,3.042 5.919,6.085 8.879,9.127l0.872,8.108c-2.825,-3.158 -5.649,-6.317 -8.474,-9.475l-1.277,-7.76Z" style="fill:#4b5c51;fill-opacity:0.25;"/><path d="M7316.833,9879.647c11.972,-5.166 11.337,-4.517 24.369,-6.668c-11.905,5.578 -11.111,8.235 -24.369,6.668Z" style="fill:#48594e;fill-opacity:0.33;"/><path d="M2486.125,9022.819l7.745,1.29c3.16,2.822 6.32,5.644 9.48,8.466c0,-0 -8.1,-0.881 -8.1,-0.881c-3.042,-2.958 -6.083,-5.916 -9.125,-8.874Z" style="fill:#4b5c51;fill-opacity:0.25;"/><path d="M9248.71,2757.683l8.613,0.728l0.567,16.867c-6.26,-8.085 -5.749,-7.622 -9.181,-17.595Z" style="fill:#4b5c51;fill-opacity:0.27;"/><path d="M9861.466,7362.025c1.635,13.099 -0.578,12.094 -6.078,24.243c1.66,-12.874 1.07,-12.27 6.078,-24.243Z" style="fill:#48594e;fill-opacity:0.32;"/><path d="M7362.03,9861.477c11.945,-4.997 11.342,-4.412 24.236,-6.092c-12.123,5.496 -11.116,7.713 -24.236,6.092Z" style="fill:#48594e;fill-opacity:0.32;"/><path d="M1007.805,4962.678c-1.476,18.976 -1.126,18.476 -6.654,36.438c2.218,-12.146 4.436,-24.292 6.654,-36.438Z" style="fill:#48584d;fill-opacity:0.37;"/><path d="M4980.763,10175.612c12.147,2.151 24.294,4.302 36.441,6.453c-12.147,-2.151 -24.294,-4.302 -36.441,-6.453Z" style="fill:#48584d;fill-opacity:0.37;"/><path d="M2048.511,2618.669c-1.298,1.575 -8.117,9.845 -16.213,19.694l1.952,-7.216c3.266,-3.675 -2.056,-4.567 0.942,-7.94c0.748,-0.841 0.987,-0.336 13.319,-4.538Z" style="fill:#46564c;fill-opacity:0.35;"/><path d="M8679.986,2150.665l8.075,0.919c3.051,2.973 6.101,5.945 9.152,8.918l-7.623,-1.425c-3.201,-2.804 -6.403,-5.607 -9.604,-8.411Z" style="fill:#4b5b51;fill-opacity:0.26;"/><path d="M9005.829,8707.325l-1.177,7.827c-3.064,2.965 -6.128,5.93 -9.192,8.895l1.624,-7.406c2.915,-3.105 5.831,-6.21 8.746,-9.315Z" style="fill:#4b5b51;fill-opacity:0.25;"/><path d="M8716.64,8997.084l7.406,-1.624c-2.965,3.064 -5.931,6.127 -8.896,9.191c-0,-0 -7.828,1.176 -7.828,1.176c3.106,-2.915 6.212,-5.829 9.318,-8.744Z" style="fill:#4b5b51;fill-opacity:0.25;"/><path d="M2567.877,9094.794l7.576,1.435c2.975,2.984 5.95,5.968 8.925,8.953c-18.081,-2.268 -13.931,-7.795 -16.5,-10.388Z" style="fill:#4b5c51;fill-opacity:0.25;"/><path d="M2150.642,8680.005c2.806,3.2 5.611,6.4 8.417,9.601l1.434,7.621c-2.968,-3.057 -5.936,-6.114 -8.903,-9.172l-0.948,-8.05Z" style="fill:#4b5b51;fill-opacity:0.26;"/><path d="M8434.83,9239.777c-3.11,2.944 -6.22,5.889 -9.33,8.833c0,0 -8.405,0.388 -8.405,0.388c8.51,-6.374 8.092,-5.84 17.735,-9.221Z" style="fill:#4b5b51;fill-opacity:0.27;"/><path d="M2600.239,9117.112c1.564,1.312 9.775,8.202 19.59,16.356c-0,-0 -7.203,-1.983 -7.203,-1.983c-8.171,-7.491 -9.319,-6.275 -12.387,-14.373Z" style="fill:#45544a;fill-opacity:0.35;"/><path d="M2175.05,2473.712c-1.38,1.511 -8.626,9.445 -17.122,18.993l2.245,-6.927c0.977,-1.023 -3.456,-5.414 14.877,-12.066Z" style="fill:#45544a;fill-opacity:0.36;"/><path d="M2447.002,8980.667c1.486,1.407 9.288,8.796 18.576,17.591c-0,-0 -6.704,-2.399 -6.704,-2.399c-7.871,-7.922 -9.119,-6.735 -11.873,-15.192Z" style="fill:#46554b;fill-opacity:0.35;"/><path d="M8599.082,2077.98c18.631,2.676 14.399,8.482 16.428,10.502l-7.461,-1.575c-2.989,-2.976 -5.978,-5.951 -8.967,-8.927Z" style="fill:#4b5b51;fill-opacity:0.26;"/><path d="M2521.424,2132.663c-3.168,2.809 -6.335,5.618 -9.503,8.427l-7.504,1.585c2.967,-2.725 -1.097,-8.371 17.007,-10.012Z" style="fill:#4b5b51;fill-opacity:0.26;"/><path d="M2142.675,2504.417l-1.585,7.504c-2.809,3.168 -5.618,6.335 -8.427,9.503c1.642,-18.103 7.288,-14.04 10.012,-17.007Z" style="fill:#4b5b51;fill-opacity:0.26;"/><path d="M2077.984,8599.078c2.974,2.99 5.948,5.981 8.922,8.971l1.58,7.458c-1.988,-1.999 -7.823,2.247 -10.502,-16.429Z" style="fill:#4b5b51;fill-opacity:0.26;"/><path d="M8717.81,2185.017l6.673,2.432c7.893,7.938 9.11,6.764 11.907,15.158c-9.449,-8.943 -8.802,-8.331 -18.58,-17.59Z" style="fill:#45554b;fill-opacity:0.35;"/><path d="M2395.989,2242.345l7.447,-1.633c-3.063,2.934 -6.126,5.868 -9.19,8.802l-7.478,1.579c3.073,-2.916 6.147,-5.832 9.22,-8.747Z" style="fill:#4b5b50;fill-opacity:0.26;"/><path d="M2251.093,2386.769l-1.579,7.478c-2.934,3.063 -5.868,6.126 -8.802,9.19l1.633,-7.447c2.916,-3.073 5.832,-6.147 8.747,-9.22Z" style="fill:#4b5b50;fill-opacity:0.26;"/><path d="M1925.023,8408.344c6.194,7.985 5.833,7.522 9.486,17.431c-2.891,-3.125 -5.783,-6.25 -8.674,-9.375c0,-0 -0.812,-8.057 -0.812,-8.057Z" style="fill:#4b5b50;fill-opacity:0.29;"/><path d="M2260.009,2377.61l-1.624,7.436c-2.957,3.067 -5.914,6.134 -8.871,9.201l1.579,-7.478c2.972,-3.053 5.944,-6.106 8.916,-9.159Z" style="fill:#4a5b50;fill-opacity:0.26;"/><path d="M2386.769,2251.093l7.478,-1.579c-3.067,2.957 -6.134,5.914 -9.201,8.871l-7.436,1.624c3.053,-2.972 6.106,-5.944 9.159,-8.916Z" style="fill:#4a5b50;fill-opacity:0.26;"/><path d="M9140.075,2622.031c1.467,1.596 7.819,-2.665 10.021,16.937c-2.832,-3.123 -5.665,-6.247 -8.497,-9.37c-0,0 -1.524,-7.567 -1.524,-7.567Z" style="fill:#4b5c51;fill-opacity:0.27;"/><path d="M2622.037,9140.068l7.546,1.55c3.124,2.834 6.248,5.667 9.371,8.501c-19.768,-2.265 -15.446,-8.699 -16.917,-10.051Z" style="fill:#4b5c51;fill-opacity:0.27;"/><path d="M2377.61,2260.009l7.436,-1.624c-3.057,2.975 -6.113,5.949 -9.17,8.924l-7.352,1.706c3.029,-3.002 6.057,-6.004 9.086,-9.007Z" style="fill:#4a5b50;fill-opacity:0.27;"/><path d="M2269.016,2368.524l-1.706,7.352c-2.975,3.057 -5.949,6.113 -8.924,9.17l1.624,-7.436c3.002,-3.029 6.004,-6.057 9.007,-9.086Z" style="fill:#4a5b50;fill-opacity:0.27;"/><path d="M9013.882,2477.006c2.979,3.039 5.958,6.077 8.937,9.116l1.277,7.76c-2.829,-3.178 -5.658,-6.357 -8.488,-9.535c-0,0 -1.727,-7.342 -1.727,-7.342Z" style="fill:#4a5b50;fill-opacity:0.27;"/><path d="M2477.01,9013.876l7.326,1.745c3.178,2.829 6.356,5.658 9.535,8.487l-7.745,-1.29c-3.038,-2.981 -6.077,-5.962 -9.115,-8.942Z" style="fill:#4a5b50;fill-opacity:0.28;"/><path d="M2368.524,2269.016l7.352,-1.706c-3.052,2.98 -6.105,5.961 -9.157,8.941l-7.207,1.838c3.004,-3.024 6.008,-6.049 9.012,-9.073Z" style="fill:#4a5a50;fill-opacity:0.27;"/><path d="M2278.088,2359.511l-1.838,7.207c-2.98,3.052 -5.961,6.105 -8.941,9.157l1.706,-7.352c3.024,-3.004 6.049,-6.008 9.073,-9.012Z" style="fill:#4a5a50;fill-opacity:0.27;"/><path d="M2412.279,2231.63c-2.948,3.027 -5.895,6.055 -8.843,9.082l-7.447,1.633c1.996,-1.881 -1.564,-6.335 0.432,-8.216c0.935,-0.881 1.175,-0.185 15.858,-2.5Z" style="fill:#4b5b51;fill-opacity:0.27;"/><path d="M2242.345,2395.989l-1.633,7.447c-3.027,2.948 -6.055,5.895 -9.082,8.843c2.314,-14.683 1.619,-14.923 2.5,-15.858c1.881,-1.996 6.335,1.564 8.216,-0.432Z" style="fill:#4b5b51;fill-opacity:0.27;"/><path d="M8689.59,2159.076l7.623,1.425c3.044,2.976 6.089,5.952 9.133,8.928l-7.247,-1.837c-3.17,-2.839 -6.34,-5.678 -9.509,-8.517Z" style="fill:#4a5a50;fill-opacity:0.28;"/><path d="M2159.059,8689.605c2.837,3.172 5.675,6.344 8.512,9.516l1.84,7.242c-2.972,-3.046 -5.945,-6.092 -8.917,-9.137l-1.434,-7.621Z" style="fill:#4a5a50;fill-opacity:0.28;"/><path d="M8544.532,2033.015c20.279,2.742 15.82,9.281 16.816,10.189c-0,-0 -7.422,-1.707 -7.422,-1.707c-3.131,-2.827 -6.262,-5.654 -9.393,-8.482Z" style="fill:#4b5b50;fill-opacity:0.28;"/><path d="M2648.107,2024.169c-7.727,6.447 -7.295,6.06 -16.96,10.08c1.856,-1.665 -2.495,-8.167 16.96,-10.08Z" style="fill:#4a5b50;fill-opacity:0.29;"/><path d="M2034.249,2631.147l-1.952,7.216c-2.713,3.246 -5.426,6.493 -8.138,9.739c1.933,-19.51 8.462,-15.14 10.09,-16.955Z" style="fill:#4a5b50;fill-opacity:0.29;"/><path d="M2033.004,8544.538c6.696,7.415 6.334,7.024 10.203,16.809c-0.855,-0.939 -7.427,3.555 -10.203,-16.809Z" style="fill:#4b5b50;fill-opacity:0.28;"/><path d="M2593.048,2068.597c-7.171,6.975 -6.704,6.71 -16.439,10.597c1.712,-1.639 -2.297,-7.223 16.439,-10.597Z" style="fill:#4a5b50;fill-opacity:0.27;"/><path d="M2086.906,8608.049c6.638,7.422 6.405,6.956 10.571,16.389c-2.997,-2.977 -5.994,-5.954 -8.991,-8.931l-1.58,-7.458Z" style="fill:#4a5a50;fill-opacity:0.29;"/><path d="M2359.511,2278.088l7.207,-1.838c-3.041,2.989 -6.082,5.978 -9.123,8.966l-7.011,2.017c2.976,-3.048 5.951,-6.097 8.927,-9.145Z" style="fill:#4a5a4f;fill-opacity:0.28;"/><path d="M2287.233,2350.585l-2.017,7.011c-2.989,3.041 -5.978,6.082 -8.966,9.123l1.838,-7.207c3.048,-2.976 6.097,-5.951 9.145,-8.927Z" style="fill:#4a5a4f;fill-opacity:0.28;"/><path d="M2079.181,2576.605l-1.781,7.336c-2.944,3.027 -5.887,6.055 -8.831,9.082c3.423,-18.72 8.985,-14.72 10.612,-16.418Z" style="fill:#4a5b50;fill-opacity:0.28;"/><path d="M2504.417,2142.675l7.504,-1.585c-3.206,2.801 -6.412,5.602 -9.618,8.404l-7.227,1.912c3.113,-2.91 6.227,-5.82 9.34,-8.73Z" style="fill:#4a5a4f;fill-opacity:0.29;"/><path d="M2151.405,2495.077l-1.912,7.227c-2.801,3.206 -5.602,6.412 -8.404,9.618l1.585,-7.504c2.91,-3.113 5.82,-6.227 8.73,-9.34Z" style="fill:#4a5a4f;fill-opacity:0.29;"/><path d="M1754.113,8181.804c9.056,3.782 8.635,3.628 14.249,11.516c-3.448,-0.922 -2.506,-1.716 -5.84,-2.608c-6.524,-1.744 -3.804,-4.03 -8.408,-8.909Z" style="fill:#49594f;fill-opacity:0.24;"/><path d="M9131.488,2612.622c2.862,3.136 5.724,6.272 8.586,9.408l1.524,7.567c-6.723,-8.052 -6.356,-7.664 -10.111,-16.976Z" style="fill:#495a4f;fill-opacity:0.3;"/><path d="M2612.625,9131.485l7.203,1.983c3.251,2.717 6.503,5.434 9.754,8.151c0,-0 -7.546,-1.55 -7.546,-1.55c-3.137,-2.861 -6.274,-5.722 -9.411,-8.583Z" style="fill:#495a4f;fill-opacity:0.3;"/><path d="M9004.887,2467.933c2.999,3.024 5.997,6.048 8.996,9.073c-0,0 1.727,7.342 1.727,7.342c-2.877,-3.139 -5.753,-6.278 -8.63,-9.417c0,0 -2.093,-6.998 -2.093,-6.998Z" style="fill:#49594f;fill-opacity:0.29;"/><path d="M2467.927,9004.889l6.985,2.109c3.141,2.875 6.282,5.749 9.424,8.624l-7.326,-1.745c-3.028,-2.996 -6.055,-5.992 -9.083,-8.988Z" style="fill:#49594f;fill-opacity:0.29;"/><path d="M8699.099,2167.592l7.247,1.837c3.029,2.994 6.058,5.987 9.088,8.981c-0,0 -6.938,-2.158 -6.938,-2.158c-3.132,-2.887 -6.264,-5.774 -9.397,-8.66Z" style="fill:#49594e;fill-opacity:0.29;"/><path d="M2167.571,8699.121c2.887,3.132 5.773,6.264 8.66,9.396c-0,0 2.173,6.924 2.173,6.924c-2.998,-3.026 -5.995,-6.052 -8.993,-9.078c-0,0 -1.84,-7.242 -1.84,-7.242Z" style="fill:#49594e;fill-opacity:0.3;"/><path d="M7350.512,1310.629c5.996,2.804 11.992,5.608 17.988,8.412c-10.397,-1.809 -9.519,-2.27 -17.988,-8.412Z" style="fill:#47574d;fill-opacity:0.34;"/><path d="M9979.417,7045.183c1.165,13.549 -0.489,12.764 -5.484,25.263c1.828,-8.421 3.656,-16.842 5.484,-25.263Z" style="fill:#4a5a50;fill-opacity:0.36;"/><path d="M2495.077,2151.405l7.227,-1.912c-7.886,6.93 -7.347,6.67 -16.525,10.679c3.1,-2.922 6.199,-5.844 9.299,-8.767Z" style="fill:#48584d;fill-opacity:0.31;"/><path d="M2160.172,2485.778l-2.245,6.927c-2.811,3.199 -5.623,6.399 -8.434,9.598l1.912,-7.227c2.922,-3.1 5.844,-6.199 8.767,-9.299Z" style="fill:#48584d;fill-opacity:0.31;"/><path d="M8995.844,2458.894c3.014,3.013 6.028,6.026 9.042,9.039l2.093,6.998c-2.917,-3.108 -5.834,-6.216 -8.751,-9.324l-2.384,-6.712Z" style="fill:#48584e;fill-opacity:0.31;"/><path d="M7045.19,9979.446c8.419,-1.836 16.837,-3.673 25.256,-5.509c-12.494,4.999 -11.707,6.647 -25.256,5.509Z" style="fill:#4a5a50;fill-opacity:0.37;"/><path d="M2458.875,8995.859l6.704,2.399c3.111,2.913 6.223,5.827 9.334,8.74l-6.985,-2.109c-3.018,-3.01 -6.035,-6.02 -9.053,-9.03Z" style="fill:#48584d;fill-opacity:0.31;"/><path d="M8708.496,2176.253l6.938,2.158c3.016,3.013 6.033,6.025 9.049,9.038c-0,0 -6.673,-2.432 -6.673,-2.432c-3.105,-2.921 -6.209,-5.843 -9.314,-8.764Z" style="fill:#48584d;fill-opacity:0.31;"/><path d="M1209.307,4103.813c-2.884,9.055 -5.768,18.111 -8.652,27.166c2.884,-9.055 5.768,-18.111 8.652,-27.166Z" style="fill:#49594f;fill-opacity:0.36;"/><path d="M2176.23,8708.517c2.919,3.107 5.838,6.214 8.757,9.321l2.457,6.649c-3.013,-3.015 -6.027,-6.031 -9.04,-9.046l-2.173,-6.924Z" style="fill:#47574d;fill-opacity:0.31;"/><path d="M4103.813,1209.307c12.317,-4.94 11.518,-6.577 25.216,-5.603c-8.405,1.868 -16.811,3.735 -25.216,5.603Z" style="fill:#495a4f;fill-opacity:0.37;"/><path d="M6672.576,1092.155c9.119,2.542 18.238,5.085 27.357,7.627c-9.119,-2.542 -18.238,-5.085 -27.357,-7.627Z" style="fill:#4a5a50;fill-opacity:0.36;"/><path d="M8986.788,2449.908c3.019,2.995 6.037,5.991 9.056,8.986c0,0 2.384,6.712 2.384,6.712c-6.844,-7.217 -6.753,-6.428 -11.44,-15.699Z" style="fill:#47564c;fill-opacity:0.32;"/><path d="M1006.051,6193.721c0.66,8.966 1.32,17.931 1.981,26.897c-3.722,-14.102 -4.006,-13.341 -1.981,-26.897Z" style="fill:#4a5a50;fill-opacity:0.38;"/><path d="M1095.282,6673.9c1.487,8.681 2.974,17.362 4.461,26.042c-4.557,-13.061 -5.517,-12.359 -4.461,-26.042Z" style="fill:#49594f;fill-opacity:0.38;"/><path d="M10082.392,6699.764c-2.524,9.129 -5.049,18.259 -7.573,27.388c2.524,-9.129 5.049,-18.259 7.573,-27.388Z" style="fill:#49594f;fill-opacity:0.35;"/><path d="M6175.593,10177.256l26.939,-1.879c-13.957,3.66 -13.184,3.97 -26.939,1.879Z" style="fill:#4a5a50;fill-opacity:0.38;"/><path d="M10191.032,6084.688c-2.074,9.133 -4.148,18.265 -6.223,27.398c2.074,-9.133 4.148,-18.265 6.223,-27.398Z" style="fill:#49594e;fill-opacity:0.37;"/><path d="M6701.069,10079.134c8.695,-1.438 17.39,-2.876 26.084,-4.314c-12.803,4.391 -12.084,5.404 -26.084,4.314Z" style="fill:#49594e;fill-opacity:0.38;"/><path d="M6085.245,10187.625l26.844,-2.789c-13.832,4.144 -13.018,4.262 -26.844,2.789Z" style="fill:#48584e;fill-opacity:0.4;"/><path d="M2184.987,8717.838c6.992,7.373 6.862,6.578 11.503,15.643c-3.016,-2.998 -6.031,-5.996 -9.047,-8.993l-2.457,-6.649Z" style="fill:#46564c;fill-opacity:0.33;"/><path d="M6708.83,1100.841c9.132,2.527 18.263,5.054 27.395,7.582c-9.132,-2.527 -18.263,-5.054 -27.395,-7.582Z" style="fill:#48584e;fill-opacity:0.36;"/><path d="M4962.678,1007.808c13.896,-3.628 13.113,-3.914 26.893,-2.081c-8.964,0.694 -17.928,1.388 -26.893,2.081Z" style="fill:#49594f;fill-opacity:0.38;"/><path d="M4492.378,10083.835c9.127,2.527 18.253,5.054 27.38,7.581c-9.127,-2.527 -18.253,-5.054 -27.38,-7.581Z" style="fill:#48584e;fill-opacity:0.36;"/><path d="M1104.006,6710.165c1.463,8.689 2.927,17.378 4.39,26.066c-4.353,-12.735 -5.33,-12.009 -4.39,-26.066Z" style="fill:#48584e;fill-opacity:0.38;"/><path d="M10083.814,4492.382c4.476,12.951 5.389,12.238 4.535,26.022c-1.512,-8.674 -3.023,-17.348 -4.535,-26.022Z" style="fill:#48584e;fill-opacity:0.38;"/><path d="M10175.595,4980.766c3.552,13.754 3.867,12.959 1.938,26.948l-1.938,-26.948Z" style="fill:#49594f;fill-opacity:0.39;"/><path d="M3796.799,9855.79c5.959,2.697 11.918,5.394 17.877,8.09c-5.959,-2.697 -11.918,-5.394 -17.877,-8.09Z" style="fill:#4a5b50;fill-opacity:0.38;"/><path d="M4085.566,9965.415c6.14,2.502 12.28,5.004 18.419,7.505c-6.14,-2.502 -12.28,-5.004 -18.419,-7.505Z" style="fill:#48584e;fill-opacity:0.4;"/><path d="M10067.528,4428.562c4.192,8.383 3.661,7.782 3.176,17.324c0,0 -3.176,-17.324 -3.176,-17.324Z" style="fill:#48584e;fill-opacity:0.33;"/><path d="M4419.51,1115.809c8.461,-4.27 7.853,-3.711 17.264,-3.282l-17.264,3.282Z" style="fill:#48584e;fill-opacity:0.33;"/></g></svg>